<svg version="1.1" id="Layer_1" xmlns="http://www.w3.org/2000/svg" xmlns:xlink="http://www.w3.org/1999/xlink" x="0px" y="0px"
	 width="100%" viewBox="0 0 768 768" enable-background="new 0 0 768 768" xml:space="preserve">
<path fill="#4F5D73" opacity="1.000000" stroke="none" 
	d="
M345.000000,1.000002 
	C371.354218,1.000000 397.708466,1.000000 424.480469,1.419080 
	C431.125427,2.888339 437.415222,3.659405 443.568115,5.040308 
	C463.118622,9.428025 482.833557,13.285260 502.083649,18.758904 
	C527.050476,25.858086 550.437195,36.983517 573.182251,49.521198 
	C597.980103,63.190468 620.733154,79.723007 641.754395,98.512947 
	C653.359985,108.886726 664.416687,120.113632 674.283081,132.135941 
	C687.724854,148.514786 700.551819,165.517517 712.259338,183.170059 
	C726.856445,205.179581 738.040771,229.156631 746.871460,254.040771 
	C757.020630,282.640533 764.138245,312.038361 767.088684,342.345215 
	C767.180054,343.283264 768.338867,344.117401 769.000000,345.000000 
	C769.000000,371.354218 769.000000,397.708466 768.584473,424.512390 
	C767.116089,431.182556 766.320679,437.459839 764.962769,443.613007 
	C760.719849,462.839233 757.294312,482.327606 751.648621,501.143250 
	C743.295593,528.981140 731.079895,555.291748 716.326843,580.433716 
	C703.104797,602.966675 687.570862,623.774170 670.152588,643.107605 
	C660.496338,653.825500 649.673584,663.523071 639.069885,673.349487 
	C624.283264,687.052246 607.934387,698.695312 591.027771,709.686035 
	C566.558716,725.592957 540.447205,738.128845 513.071045,747.812927 
	C485.415985,757.595642 456.897247,764.262695 427.586212,767.090027 
	C426.671234,767.178284 425.859741,768.339233 425.000000,769.000000 
	C398.645782,769.000000 372.291534,769.000000 345.510071,768.583862 
	C344.406921,767.792236 343.767578,767.190735 343.049713,767.074524 
	C327.953979,764.630371 312.639221,763.138550 297.788574,759.661316 
	C262.659454,751.435730 229.189133,738.635193 197.623154,720.945374 
	C172.170074,706.681152 148.512238,689.875122 126.988731,670.293884 
	C104.891518,650.190613 84.918594,627.986206 68.075485,603.241394 
	C53.110043,581.255066 40.270508,558.030029 30.090176,533.380981 
	C16.047956,499.381287 6.688452,464.207947 2.911075,427.577637 
	C2.816704,426.662476 1.660816,425.856750 1.000003,425.000000 
	C1.000000,398.645782 1.000000,372.291534 1.416151,345.528015 
	C2.189021,344.607391 2.812503,344.121460 2.863995,343.581024 
	C4.898304,322.228790 9.225974,301.356079 14.831011,280.646942 
	C23.870947,247.246811 37.925220,216.030228 55.368153,186.360443 
	C67.662437,165.448303 81.956482,145.698563 98.709229,128.167816 
	C113.919624,112.251038 129.963623,96.933342 146.978073,82.983421 
	C173.885468,60.922417 203.957764,43.771721 236.145264,30.333792 
	C270.270325,16.086960 305.592072,6.741574 342.380219,2.911187 
	C343.309723,2.814406 344.129211,1.660752 345.000000,1.000002 
M368.951935,130.951370 
	C368.951935,130.951370 368.946106,130.882523 368.305481,130.838669 
	C368.170105,131.215424 368.034729,131.592178 367.965393,131.961746 
	C367.965393,131.961746 367.948059,131.897598 367.306091,131.923004 
	C366.843353,132.607147 366.380615,133.291290 365.979370,133.984070 
	C365.979370,133.984070 365.964447,133.923813 365.350830,134.199371 
	C365.191132,134.792236 365.031403,135.385101 364.956757,135.950912 
	C364.956757,135.950912 364.929535,135.865936 364.350739,135.744537 
	C363.950287,136.387421 363.549835,137.030304 362.850861,138.340393 
	C359.505157,144.240433 356.159424,150.140472 352.200897,156.319275 
	C343.041840,174.200821 335.663666,192.348709 337.225769,213.271255 
	C338.747284,233.650391 338.894104,254.132141 338.978577,274.820343 
	C334.318268,277.192078 329.657928,279.563812 324.279297,282.043396 
	C311.248840,288.113007 298.218384,294.182617 284.852020,299.611603 
	C278.635803,291.162659 270.361877,287.433838 260.032410,289.652161 
	C249.724136,291.865967 243.435013,298.594574 241.470154,308.871887 
	C240.701950,312.890045 241.220078,317.154114 240.680267,321.804260 
	C217.177780,333.072998 193.673584,344.338226 170.173431,355.611786 
	C155.863464,362.476654 147.344696,373.575531 145.944809,389.562195 
	C145.322983,396.663330 145.349838,403.821259 145.011566,411.890381 
	C145.006134,419.051392 144.804153,426.219055 145.046112,433.371704 
	C145.334839,441.907135 148.931213,448.710297 157.088074,453.595306 
	C167.444931,459.423798 178.441483,457.722382 186.880020,448.766083 
	C187.509827,448.167725 188.139648,447.569366 189.601547,446.946045 
	C201.942017,443.616760 214.308136,440.379272 226.618240,436.941223 
	C265.820862,425.992645 305.002655,414.969421 344.498169,404.871429 
	C345.672302,436.119415 346.781067,467.370178 348.104889,498.611816 
	C348.266907,502.435394 347.123322,504.521149 343.834076,506.531433 
	C314.754456,524.303833 285.856903,542.374084 256.774475,560.141846 
	C248.045593,565.474731 242.520477,572.798218 241.769516,582.917542 
	C241.045914,592.667847 241.322220,602.492432 241.099930,613.323792 
	C241.074326,619.484558 240.863480,625.651367 241.062332,631.804871 
	C241.456802,644.011536 249.702286,650.281189 261.601349,647.500793 
	C264.508545,646.821411 267.351410,645.792969 270.148407,644.727051 
	C296.438385,634.708191 322.708588,624.637329 348.994446,614.607483 
	C352.621857,613.223328 356.303436,611.981140 360.322815,610.543518 
	C360.669769,612.459961 360.890228,613.409058 361.008392,614.370728 
	C362.578827,627.152649 372.371307,636.664124 384.299133,636.976013 
	C396.373199,637.291748 406.687225,628.553406 408.787994,615.752014 
	C409.429443,611.843201 410.613342,611.011780 414.295319,612.471130 
	C430.390808,618.850586 446.546173,625.080078 462.710876,631.283142 
	C478.403290,637.304932 494.026306,643.536438 509.894653,649.058289 
	C517.321838,651.642761 524.004639,648.088318 526.963440,640.810303 
	C530.260132,632.701233 529.720642,624.266418 527.881226,615.050903 
	C528.035339,605.780151 528.649719,596.488708 528.233887,587.243591 
	C527.635315,573.934509 521.004395,564.565002 509.320068,557.613586 
	C481.279449,540.931274 453.752289,523.387573 425.914764,506.360077 
	C422.775208,504.439728 421.738129,502.403046 421.893188,498.794342 
	C422.851227,476.493042 423.535034,454.180176 424.396545,431.874451 
	C424.756012,422.567841 425.328308,413.269379 426.482513,404.096619 
	C465.540436,415.079224 504.585510,426.107788 543.663696,437.017700 
	C556.138977,440.500549 568.702209,443.668610 581.641663,447.273285 
	C582.262756,447.860016 582.883850,448.446747 583.941772,449.612762 
	C592.635681,458.119324 604.099487,459.444153 614.125854,452.886505 
	C620.245850,448.516022 624.472534,442.769867 624.895813,435.172607 
	C625.330078,427.379059 624.915405,419.538269 624.857117,410.816223 
	C624.869812,405.484283 624.959717,400.151215 624.881287,394.820618 
	C624.602966,375.913086 615.972534,362.549652 598.506958,354.933929 
	C592.101990,352.141113 585.856323,348.979736 579.564453,345.931915 
	C562.651184,337.739044 545.752258,329.516724 528.966553,320.331299 
	C528.978394,318.175568 529.020081,316.019501 528.997253,313.864136 
	C528.876160,302.447144 522.321899,293.254639 512.070007,290.095673 
	C501.666046,286.889893 491.482483,290.680603 484.090454,300.114410 
	C471.060394,294.054688 458.030304,287.994934 444.565887,281.408112 
	C439.831696,279.127960 435.097473,276.847809 430.306763,273.765717 
	C431.021393,254.328583 431.149384,234.846329 432.639435,215.468811 
	C433.796326,200.423141 431.281372,186.358978 425.411072,172.730331 
	C422.940613,166.994949 419.929077,161.492630 417.099091,155.162170 
	C413.473816,149.342331 409.848541,143.522476 406.264893,137.162506 
	C405.869202,136.730591 405.473511,136.298676 405.041565,135.945740 
	C405.041565,135.945740 405.120605,135.981857 405.312256,135.343414 
	C404.886078,134.870346 404.459869,134.397293 404.019501,133.984818 
	C404.019501,133.984818 404.081146,133.976349 403.964508,133.348297 
	C403.326447,132.865433 402.688354,132.382553 402.033569,131.963730 
	C402.033569,131.963730 402.099518,131.969452 402.103821,131.330933 
	C401.753876,131.181656 401.403931,131.032379 401.048187,130.951477 
	C401.048187,130.951477 401.116821,130.952118 401.176544,130.284348 
	C400.802124,130.148224 400.427673,130.012085 400.064789,129.950943 
	C400.064789,129.950943 400.139709,129.939224 400.313843,129.235367 
	C398.895752,128.112686 397.477692,126.989990 396.052887,125.936974 
	C396.052887,125.936974 396.122742,125.941689 396.187653,125.290840 
	C395.809753,125.155945 395.431854,125.021049 395.055389,124.950417 
	C395.055389,124.950417 395.114014,124.924049 395.118195,124.278435 
	C394.417358,123.827072 393.716553,123.375710 393.010162,122.985405 
	C393.010162,122.985405 393.068390,122.966187 392.660370,122.356354 
	C387.278778,118.970604 382.013794,118.608688 376.988373,122.983093 
	C376.988373,122.983093 376.981049,122.922478 376.342438,123.031456 
	C375.856415,123.662201 375.370392,124.292946 374.949921,124.942581 
	C374.949921,124.942581 374.962646,124.875587 374.333466,124.723030 
	C373.867859,125.145248 373.402252,125.567459 372.999817,126.000214 
	C372.999817,126.000214 372.996185,125.936317 372.428894,126.146904 
	C371.928619,126.759232 371.428375,127.371567 370.989929,127.991196 
	C370.989929,127.991196 370.976929,127.930328 370.356445,128.219940 
	C370.189056,128.803116 370.021667,129.386292 369.947449,129.968079 
	C369.947449,129.968079 369.945923,129.874878 369.277832,129.791061 
	C369.146179,130.178421 369.014496,130.565796 368.951935,130.951370 
z"/>
<path fill="#000000" opacity="1.000000" stroke="none" 
	d="
M425.468658,769.000000 
	C425.859741,768.339233 426.671234,767.178284 427.586212,767.090027 
	C456.897247,764.262695 485.415985,757.595642 513.071045,747.812927 
	C540.447205,738.128845 566.558716,725.592957 591.027771,709.686035 
	C607.934387,698.695312 624.283264,687.052246 639.069885,673.349487 
	C649.673584,663.523071 660.496338,653.825500 670.152588,643.107605 
	C687.570862,623.774170 703.104797,602.966675 716.326843,580.433716 
	C731.079895,555.291748 743.295593,528.981140 751.648621,501.143250 
	C757.294312,482.327606 760.719849,462.839233 764.962769,443.613007 
	C766.320679,437.459839 767.116089,431.182556 768.584473,424.981049 
	C769.000000,539.593750 769.000000,654.187500 769.000000,769.000000 
	C654.645874,769.000000 540.291565,769.000000 425.468658,769.000000 
z"/>
<path fill="#000000" opacity="1.000000" stroke="none" 
	d="
M1.000003,425.468658 
	C1.660816,425.856750 2.816704,426.662476 2.911075,427.577637 
	C6.688452,464.207947 16.047956,499.381287 30.090176,533.380981 
	C40.270508,558.030029 53.110043,581.255066 68.075485,603.241394 
	C84.918594,627.986206 104.891518,650.190613 126.988731,670.293884 
	C148.512238,689.875122 172.170074,706.681152 197.623154,720.945374 
	C229.189133,738.635193 262.659454,751.435730 297.788574,759.661316 
	C312.639221,763.138550 327.953979,764.630371 343.049713,767.074524 
	C343.767578,767.190735 344.406921,767.792236 345.041412,768.583862 
	C230.406265,769.000000 115.812515,769.000000 1.000000,769.000000 
	C1.000000,654.645874 1.000000,540.291565 1.000003,425.468658 
z"/>
<path fill="#000000" opacity="1.000000" stroke="none" 
	d="
M769.000000,344.531342 
	C768.338867,344.117401 767.180054,343.283264 767.088684,342.345215 
	C764.138245,312.038361 757.020630,282.640533 746.871460,254.040771 
	C738.040771,229.156631 726.856445,205.179581 712.259338,183.170059 
	C700.551819,165.517517 687.724854,148.514786 674.283081,132.135941 
	C664.416687,120.113632 653.359985,108.886726 641.754395,98.512947 
	C620.733154,79.723007 597.980103,63.190468 573.182251,49.521198 
	C550.437195,36.983517 527.050476,25.858086 502.083649,18.758904 
	C482.833557,13.285260 463.118622,9.428025 443.568115,5.040308 
	C437.415222,3.659405 431.125427,2.888339 424.949158,1.419080 
	C539.593750,1.000000 654.187439,1.000000 769.000000,1.000000 
	C769.000000,115.354134 769.000000,229.708405 769.000000,344.531342 
z"/>
<path fill="#000000" opacity="1.000000" stroke="none" 
	d="
M344.531342,1.000002 
	C344.129211,1.660752 343.309723,2.814406 342.380219,2.911187 
	C305.592072,6.741574 270.270325,16.086960 236.145264,30.333792 
	C203.957764,43.771721 173.885468,60.922417 146.978073,82.983421 
	C129.963623,96.933342 113.919624,112.251038 98.709229,128.167816 
	C81.956482,145.698563 67.662437,165.448303 55.368153,186.360443 
	C37.925220,216.030228 23.870947,247.246811 14.831011,280.646942 
	C9.225974,301.356079 4.898304,322.228790 2.863995,343.581024 
	C2.812503,344.121460 2.189021,344.607391 1.416151,345.059387 
	C1.000000,230.406265 1.000000,115.812515 1.000000,1.000000 
	C115.354134,1.000000 229.708405,1.000000 344.531342,1.000002 
z"/>
<path fill="#E0E0D1" opacity="1.000000" stroke="none" 
	d="
M339.644470,274.568848 
	C338.894104,254.132141 338.747284,233.650391 337.225769,213.271255 
	C335.663666,192.348709 343.041840,174.200821 352.544922,156.576340 
	C355.613251,168.403778 360.442383,178.864487 369.572906,186.802887 
	C379.136871,195.118073 390.877075,195.174255 400.371857,186.824997 
	C409.697845,178.624146 414.878265,167.996338 417.163483,155.884369 
	C419.929077,161.492630 422.940613,166.994949 425.411072,172.730331 
	C431.281372,186.358978 433.796326,200.423141 432.639435,215.468811 
	C431.149384,234.846329 431.021393,254.328583 430.271667,274.660339 
	C429.856567,283.865570 429.416901,292.173950 429.107635,300.487152 
	C428.118011,327.091156 427.176666,353.696930 426.216248,380.751831 
	C426.078461,388.790192 425.941132,396.378693 425.803833,403.967224 
	C425.328308,413.269379 424.756012,422.567841 424.396545,431.874451 
	C423.535034,454.180176 422.851227,476.493042 421.893188,498.794342 
	C421.738129,502.403046 422.775208,504.439728 425.914764,506.360077 
	C453.752289,523.387573 481.279449,540.931274 509.320068,557.613586 
	C521.004395,564.565002 527.635315,573.934509 528.233887,587.243591 
	C528.649719,596.488708 528.035339,605.780151 527.604004,615.711304 
	C523.049255,624.614441 517.874634,627.087585 508.950409,624.968750 
	C506.536194,624.395508 504.178375,623.521423 501.859985,622.617798 
	C477.238007,613.021118 452.631409,603.385071 428.015442,593.772888 
	C421.877594,591.376160 415.721436,589.026428 409.464081,586.612793 
	C407.091919,603.981140 398.224976,613.205383 384.566467,612.993591 
	C371.216949,612.786743 362.618347,603.376160 360.617554,586.587341 
	C359.502594,586.889648 358.385193,587.096008 357.339050,587.491028 
	C345.988983,591.776550 334.646515,596.082275 323.308960,600.400757 
	C303.893768,607.795898 284.515533,615.289612 265.057281,622.569641 
	C255.851608,626.013855 249.217224,624.800537 245.034515,619.169556 
	C243.476562,617.072205 242.435806,614.590698 241.159210,612.284363 
	C241.322220,602.492432 241.045914,592.667847 241.769516,582.917542 
	C242.520477,572.798218 248.045593,565.474731 256.774475,560.141846 
	C285.856903,542.374084 314.754456,524.303833 343.834076,506.531433 
	C347.123322,504.521149 348.266907,502.435394 348.104889,498.611816 
	C346.781067,467.370178 345.672302,436.119415 344.444702,404.023224 
	C344.188019,395.548737 343.984802,387.922424 343.789856,379.853943 
	C342.865265,355.892914 341.931824,332.374146 340.999664,308.855316 
	C340.546661,297.426514 340.096130,285.997681 339.644470,274.568848 
z"/>
<path fill="#E0E0D1" opacity="1.000000" stroke="none" 
	d="
M445.000244,281.935211 
	C458.030304,287.994934 471.060394,294.054688 484.727783,300.388367 
	C499.859283,307.543579 514.353455,314.424866 528.847595,321.306122 
	C545.752258,329.516724 562.651184,337.739044 579.564453,345.931915 
	C585.856323,348.979736 592.101990,352.141113 598.506958,354.933929 
	C615.972534,362.549652 624.602966,375.913086 624.881287,394.820618 
	C624.959717,400.151215 624.869812,405.484283 624.703796,411.624451 
	C621.392761,426.934967 615.732239,430.918518 601.328369,428.750214 
	C600.012573,428.552124 598.699951,428.295868 597.409607,427.971802 
	C590.638184,426.271210 583.874512,424.540100 576.830505,422.583344 
	C564.432129,418.897858 552.310059,415.453094 540.190796,411.998596 
	C506.711395,402.455627 473.233185,392.908600 439.831116,382.907837 
	C441.605225,348.946747 443.302734,315.440979 445.000244,281.935211 
z"/>
<path fill="#E0E0D1" opacity="1.000000" stroke="none" 
	d="
M145.082260,410.953430 
	C145.349838,403.821259 145.322983,396.663330 145.944809,389.562195 
	C147.344696,373.575531 155.863464,362.476654 170.173431,355.611786 
	C193.673584,344.338226 217.177780,333.072998 241.274033,321.453217 
	C256.307831,314.152191 270.747894,307.202209 285.187927,300.252228 
	C298.218384,294.182617 311.248840,288.113007 324.642395,282.452881 
	C326.059113,306.259369 327.043427,329.659790 328.198669,353.051788 
	C328.698181,363.166016 329.550537,373.262878 329.930206,383.566895 
	C301.450531,391.736420 273.273071,399.670807 245.119751,407.689941 
	C227.701431,412.651306 210.319809,417.741608 192.521423,422.797180 
	C184.571976,424.756042 177.092850,427.047028 169.458755,428.551727 
	C154.712250,431.458252 148.531494,427.088776 145.571213,412.359894 
	C145.474335,411.877777 145.248169,411.421661 145.082260,410.953430 
z"/>
<path fill="#475162" opacity="1.000000" stroke="none" 
	d="
M241.129578,612.804077 
	C242.435806,614.590698 243.476562,617.072205 245.034515,619.169556 
	C249.217224,624.800537 255.851608,626.013855 265.057281,622.569641 
	C284.515533,615.289612 303.893768,607.795898 323.308960,600.400757 
	C334.646515,596.082275 345.988983,591.776550 357.339050,587.491028 
	C358.385193,587.096008 359.502594,586.889648 360.617554,586.587341 
	C362.618347,603.376160 371.216949,612.786743 384.566467,612.993591 
	C398.224976,613.205383 407.091919,603.981140 409.464081,586.612793 
	C415.721436,589.026428 421.877594,591.376160 428.015442,593.772888 
	C452.631409,603.385071 477.238007,613.021118 501.859985,622.617798 
	C504.178375,623.521423 506.536194,624.395508 508.950409,624.968750 
	C517.874634,627.087585 523.049255,624.614441 527.557861,616.126343 
	C529.720642,624.266418 530.260132,632.701233 526.963440,640.810303 
	C524.004639,648.088318 517.321838,651.642761 509.894653,649.058289 
	C494.026306,643.536438 478.403290,637.304932 462.710876,631.283142 
	C446.546173,625.080078 430.390808,618.850586 414.295319,612.471130 
	C410.613342,611.011780 409.429443,611.843201 408.787994,615.752014 
	C406.687225,628.553406 396.373199,637.291748 384.299133,636.976013 
	C372.371307,636.664124 362.578827,627.152649 361.008392,614.370728 
	C360.890228,613.409058 360.669769,612.459961 360.322815,610.543518 
	C356.303436,611.981140 352.621857,613.223328 348.994446,614.607483 
	C322.708588,624.637329 296.438385,634.708191 270.148407,644.727051 
	C267.351410,645.792969 264.508545,646.821411 261.601349,647.500793 
	C249.702286,650.281189 241.456802,644.011536 241.062332,631.804871 
	C240.863480,625.651367 241.074326,619.484558 241.129578,612.804077 
z"/>
<path fill="#475163" opacity="1.000000" stroke="none" 
	d="
M439.754486,383.363159 
	C473.233185,392.908600 506.711395,402.455627 540.190796,411.998596 
	C552.310059,415.453094 564.432129,418.897858 576.804565,423.061768 
	C576.710205,431.823059 576.655212,439.817352 581.225159,446.980682 
	C568.702209,443.668610 556.138977,440.500549 543.663696,437.017700 
	C504.585510,426.107788 465.540436,415.079224 426.143188,404.031921 
	C425.941132,396.378693 426.078461,388.790192 426.586823,380.746094 
	C431.223389,381.314728 435.488922,382.338959 439.754486,383.363159 
z"/>
<path fill="#475163" opacity="1.000000" stroke="none" 
	d="
M192.921722,422.774017 
	C210.319809,417.741608 227.701431,412.651306 245.119751,407.689941 
	C273.273071,399.670807 301.450531,391.736420 330.324219,383.538513 
	C335.280975,382.305939 339.531250,381.301056 343.781555,380.296143 
	C343.984802,387.922424 344.188019,395.548737 344.291870,403.575012 
	C305.002655,414.969421 265.820862,425.992645 226.618240,436.941223 
	C214.308136,440.379272 201.942017,443.616760 189.324738,446.617401 
	C193.755875,439.013367 193.115036,430.856842 192.921722,422.774017 
z"/>
<path fill="#78B3D4" opacity="1.000000" stroke="none" 
	d="
M417.131287,155.523270 
	C414.878265,167.996338 409.697845,178.624146 400.371857,186.824997 
	C390.877075,195.174255 379.136871,195.118073 369.572906,186.802887 
	C360.442383,178.864487 355.613251,168.403778 352.851318,156.436951 
	C356.159424,150.140472 359.505157,144.240433 363.254089,137.907806 
	C364.081390,136.938782 364.505463,136.402374 364.929565,135.865936 
	C364.929535,135.865936 364.956757,135.950912 365.168243,135.787323 
	C365.574615,135.057083 365.769531,134.490448 365.964447,133.923813 
	C365.964447,133.923813 365.979370,133.984070 366.263672,133.933167 
	C367.014679,133.220703 367.481354,132.559143 367.948059,131.897583 
	C367.948059,131.897598 367.965393,131.961746 368.175781,131.860138 
	C368.572815,131.466522 368.759460,131.174530 368.946106,130.882523 
	C368.946106,130.882523 368.951935,130.951370 369.155457,130.840240 
	C369.554657,130.444351 369.750275,130.159622 369.945923,129.874878 
	C369.945923,129.874878 369.947449,129.968079 370.164337,129.799927 
	C370.579803,129.064621 370.778351,128.497482 370.976929,127.930328 
	C370.976929,127.930328 370.989929,127.991196 371.287079,127.959274 
	C372.054871,127.263672 372.525513,126.599991 372.996185,125.936310 
	C372.996185,125.936317 372.999817,126.000214 373.281219,125.994659 
	C374.029297,125.617935 374.495972,125.246758 374.962646,124.875580 
	C374.962646,124.875587 374.949921,124.942581 375.234131,124.884583 
	C376.005890,124.191887 376.493469,123.557190 376.981079,122.922485 
	C376.981049,122.922478 376.988373,122.983093 377.353485,123.018547 
	C382.820862,120.520790 387.944122,121.655075 393.068390,122.966187 
	C393.068390,122.966187 393.010162,122.985405 393.054199,123.272202 
	C393.770172,124.014023 394.442108,124.469040 395.114014,124.924049 
	C395.114014,124.924049 395.055389,124.950417 395.147858,125.167862 
	C395.534454,125.570770 395.828613,125.756233 396.122742,125.941696 
	C396.122742,125.941689 396.052887,125.936974 396.165771,126.212524 
	C397.565643,127.638458 398.852692,128.788834 400.139709,129.939224 
	C400.139709,129.939224 400.064789,129.950943 400.167175,130.153580 
	C400.552002,130.554855 400.834412,130.753479 401.116821,130.952118 
	C401.116821,130.952118 401.048187,130.951477 401.145416,131.165497 
	C401.528259,131.576172 401.813904,131.772812 402.099518,131.969452 
	C402.099518,131.969452 402.033569,131.963730 402.101440,132.245209 
	C402.806580,133.009903 403.443878,133.493118 404.081146,133.976349 
	C404.081146,133.976349 404.019501,133.984818 404.032837,134.263611 
	C404.404358,135.022217 404.762482,135.502029 405.120605,135.981842 
	C405.120605,135.981857 405.041565,135.945740 405.069092,136.137848 
	C405.472168,136.787491 405.847717,137.245056 406.223267,137.702621 
	C409.848541,143.522476 413.473816,149.342331 417.131287,155.523270 
z"/>
<path fill="#BAB9AD" opacity="1.000000" stroke="none" 
	d="
M343.789856,379.853943 
	C339.531250,381.301056 335.280975,382.305939 330.636658,383.339233 
	C329.550537,373.262878 328.698181,363.166016 328.198669,353.051788 
	C327.043427,329.659790 326.059113,306.259369 325.001526,282.398956 
	C329.657928,279.563812 334.318268,277.192078 339.311523,274.694580 
	C340.096130,285.997681 340.546661,297.426514 340.999664,308.855316 
	C341.931824,332.374146 342.865265,355.892914 343.789856,379.853943 
z"/>
<path fill="#BAB9AD" opacity="1.000000" stroke="none" 
	d="
M439.831116,382.907837 
	C435.488922,382.338959 431.223389,381.314728 426.587280,380.296265 
	C427.176666,353.696930 428.118011,327.091156 429.107635,300.487152 
	C429.416901,292.173950 429.856567,283.865570 430.299927,275.061340 
	C435.097473,276.847809 439.831696,279.127960 444.783081,281.671661 
	C443.302734,315.440979 441.605225,348.946747 439.831116,382.907837 
z"/>
<path fill="#A65151" opacity="1.000000" stroke="none" 
	d="
M192.521423,422.797180 
	C193.115036,430.856842 193.755875,439.013367 188.908707,446.629883 
	C188.139648,447.569366 187.509827,448.167725 186.216736,448.912842 
	C175.887619,450.391815 166.221802,451.723999 156.555984,453.056183 
	C148.931213,448.710297 145.334839,441.907135 145.046112,433.371704 
	C144.804153,426.219055 145.006134,419.051392 145.046906,411.421906 
	C145.248169,411.421661 145.474335,411.877777 145.571213,412.359894 
	C148.531494,427.088776 154.712250,431.458252 169.458755,428.551727 
	C177.092850,427.047028 184.571976,424.756042 192.521423,422.797180 
z"/>
<path fill="#66A192" opacity="1.000000" stroke="none" 
	d="
M581.433411,447.126984 
	C576.655212,439.817352 576.710205,431.823059 577.082153,423.298035 
	C583.874512,424.540100 590.638184,426.271210 597.409607,427.971802 
	C598.699951,428.295868 600.012573,428.552124 601.328369,428.750214 
	C615.732239,430.918518 621.392761,426.934967 624.711365,412.075409 
	C624.915405,419.538269 625.330078,427.379059 624.895813,435.172607 
	C624.472534,442.769867 620.245850,448.516022 613.308533,452.953949 
	C606.085205,452.295837 599.669495,451.645203 593.277283,450.813690 
	C589.998169,450.387085 586.761047,449.637207 583.504944,449.033447 
	C582.883850,448.446747 582.262756,447.860016 581.433411,447.126984 
z"/>
<path fill="#F3CE87" opacity="1.000000" stroke="none" 
	d="
M285.019958,299.931915 
	C270.747894,307.202209 256.307831,314.152191 241.510071,321.204163 
	C241.220078,317.154114 240.701950,312.890045 241.470154,308.871887 
	C243.435013,298.594574 249.724136,291.865967 260.032410,289.652161 
	C270.361877,287.433838 278.635803,291.162659 285.019958,299.931915 
z"/>
<path fill="#F3CE87" opacity="1.000000" stroke="none" 
	d="
M528.907104,320.818726 
	C514.353455,314.424866 499.859283,307.543579 485.089233,300.452026 
	C491.482483,290.680603 501.666046,286.889893 512.070007,290.095673 
	C522.321899,293.254639 528.876160,302.447144 528.997253,313.864136 
	C529.020081,316.019501 528.978394,318.175568 528.907104,320.818726 
z"/>
<path fill="#74BEAC" opacity="1.000000" stroke="none" 
	d="
M583.723389,449.323120 
	C586.761047,449.637207 589.998169,450.387085 593.277283,450.813690 
	C599.669495,451.645203 606.085205,452.295837 612.998230,453.025360 
	C604.099487,459.444153 592.635681,458.119324 583.723389,449.323120 
z"/>
<path fill="#C25C5C" opacity="1.000000" stroke="none" 
	d="
M156.822021,453.325745 
	C166.221802,451.723999 175.887619,450.391815 185.995758,449.056915 
	C178.441483,457.722382 167.444931,459.423798 156.822021,453.325745 
z"/>
<path fill="#C5CDC7" opacity="1.000000" stroke="none" 
	d="
M392.864380,122.661270 
	C387.944122,121.655075 382.820862,120.520790 377.324646,123.008514 
	C382.013794,118.608688 387.278778,118.970604 392.864380,122.661270 
z"/>
<path fill="#C5CDC7" opacity="1.000000" stroke="none" 
	d="
M400.226776,129.587296 
	C398.852692,128.788834 397.565643,127.638458 396.169128,126.177689 
	C397.477692,126.989990 398.895752,128.112686 400.226776,129.587296 
z"/>
<path fill="#C5CDC7" opacity="1.000000" stroke="none" 
	d="
M367.627075,131.910294 
	C367.481354,132.559143 367.014679,133.220703 366.232910,133.928848 
	C366.380615,133.291290 366.843353,132.607147 367.627075,131.910294 
z"/>
<path fill="#C5CDC7" opacity="1.000000" stroke="none" 
	d="
M376.661743,122.976974 
	C376.493469,123.557190 376.005890,124.191887 375.201355,124.875137 
	C375.370392,124.292946 375.856415,123.662201 376.661743,122.976974 
z"/>
<path fill="#C5CDC7" opacity="1.000000" stroke="none" 
	d="
M395.116089,124.601242 
	C394.442108,124.469040 393.770172,124.014023 393.057007,123.241676 
	C393.716553,123.375710 394.417358,123.827072 395.116089,124.601242 
z"/>
<path fill="#C5CDC7" opacity="1.000000" stroke="none" 
	d="
M404.022827,133.662323 
	C403.443878,133.493118 402.806580,133.009903 402.109802,132.213181 
	C402.688354,132.382553 403.326447,132.865433 404.022827,133.662323 
z"/>
<path fill="#C5CDC7" opacity="1.000000" stroke="none" 
	d="
M364.640137,135.805237 
	C364.505463,136.402374 364.081390,136.938782 363.403320,137.574188 
	C363.549835,137.030304 363.950287,136.387421 364.640137,135.805237 
z"/>
<path fill="#C5CDC7" opacity="1.000000" stroke="none" 
	d="
M406.244080,137.432556 
	C405.847717,137.245056 405.472168,136.787491 405.087219,136.098358 
	C405.473511,136.298676 405.869202,136.730591 406.244080,137.432556 
z"/>
<path fill="#C5CDC7" opacity="1.000000" stroke="none" 
	d="
M372.712524,126.041611 
	C372.525513,126.599991 372.054871,127.263672 371.256165,127.955627 
	C371.428375,127.371567 371.928619,126.759232 372.712524,126.041611 
z"/>
<path fill="#C5CDC7" opacity="1.000000" stroke="none" 
	d="
M405.216431,135.662628 
	C404.762482,135.502029 404.404358,135.022217 404.039948,134.233307 
	C404.459869,134.397293 404.886078,134.870346 405.216431,135.662628 
z"/>
<path fill="#C5CDC7" opacity="1.000000" stroke="none" 
	d="
M365.657654,134.061584 
	C365.769531,134.490448 365.574615,135.057083 365.125732,135.800842 
	C365.031403,135.385101 365.191132,134.792236 365.657654,134.061584 
z"/>
<path fill="#C5CDC7" opacity="1.000000" stroke="none" 
	d="
M374.648071,124.799301 
	C374.495972,125.246758 374.029297,125.617935 373.249634,125.989395 
	C373.402252,125.567459 373.867859,125.145248 374.648071,124.799301 
z"/>
<path fill="#C5CDC7" opacity="1.000000" stroke="none" 
	d="
M370.666687,128.075134 
	C370.778351,128.497482 370.579803,129.064621 370.117767,129.800629 
	C370.021667,129.386292 370.189056,128.803116 370.666687,128.075134 
z"/>
<path fill="#C5CDC7" opacity="1.000000" stroke="none" 
	d="
M402.101685,131.650192 
	C401.813904,131.772812 401.528259,131.576172 401.148315,131.131317 
	C401.403931,131.032379 401.753876,131.181656 402.101685,131.650192 
z"/>
<path fill="#C5CDC7" opacity="1.000000" stroke="none" 
	d="
M368.625793,130.860596 
	C368.759460,131.174530 368.572815,131.466522 368.142761,131.863739 
	C368.034729,131.592178 368.170105,131.215424 368.625793,130.860596 
z"/>
<path fill="#C5CDC7" opacity="1.000000" stroke="none" 
	d="
M396.155212,125.616272 
	C395.828613,125.756233 395.534454,125.570770 395.147156,125.135727 
	C395.431854,125.021049 395.809753,125.155945 396.155212,125.616272 
z"/>
<path fill="#C5CDC7" opacity="1.000000" stroke="none" 
	d="
M401.146667,130.618225 
	C400.834412,130.753479 400.552002,130.554855 400.161438,130.116089 
	C400.427673,130.012085 400.802124,130.148224 401.146667,130.618225 
z"/>
<path fill="#C5CDC7" opacity="1.000000" stroke="none" 
	d="
M369.611877,129.832977 
	C369.750275,130.159622 369.554657,130.444351 369.120911,130.841125 
	C369.014496,130.565796 369.146179,130.178421 369.611877,129.832977 
z"/>
</svg>